<?xml version="1.0" standalone="no"?>
<!DOCTYPE svg PUBLIC "-//W3C//DTD SVG 20010904//EN"
 "http://www.w3.org/TR/2001/REC-SVG-20010904/DTD/svg10.dtd">
<svg version="1.0" xmlns="http://www.w3.org/2000/svg"
 width="155.000000pt" height="154.000000pt" viewBox="0 0 155.000000 154.000000"
 preserveAspectRatio="xMidYMid meet">

<g transform="translate(0.000000,154.000000) scale(0.100000,-0.100000)"
fill="#000000" stroke="none">
<path d="M650 1536 c0 -2 7 -6 15 -10 8 -3 15 -1 15 4 0 6 -7 10 -15 10 -8 0
-15 -2 -15 -4z"/>
<path d="M775 1510 c0 -15 3 -26 8 -23 4 2 7 13 7 23 0 10 -3 21 -7 23 -5 3
-8 -8 -8 -23z"/>
<path d="M741 1514 c0 -11 3 -14 6 -6 3 7 2 16 -1 19 -3 4 -6 -2 -5 -13z"/>
<path d="M930 1520 c0 -5 7 -7 15 -4 8 4 15 8 15 10 0 2 -7 4 -15 4 -8 0 -15
-4 -15 -10z"/>
<path d="M565 1510 c3 -5 8 -10 11 -10 2 0 4 5 4 10 0 6 -5 10 -11 10 -5 0 -7
-4 -4 -10z"/>
<path d="M536 1501 c-7 -11 28 -43 37 -34 13 12 7 22 -10 16 -10 -4 -14 -2 -9
5 3 6 2 13 -3 16 -5 4 -12 2 -15 -3z"/>
<path d="M712 1478 c-2 -37 -16 -57 -25 -38 -3 6 -4 5 -3 -2 1 -7 19 -14 39
-16 33 -3 37 -1 36 20 -1 17 -3 18 -6 6 -9 -35 -32 -19 -36 25 -3 41 -4 42 -5
5z"/>
<path d="M821 1484 c0 -11 3 -14 6 -6 3 7 2 16 -1 19 -3 4 -6 -2 -5 -13z"/>
<path d="M999 1483 c-13 -17 -13 -17 6 -3 11 8 22 16 24 17 2 2 0 3 -6 3 -6 0
-17 -8 -24 -17z"/>
<path d="M1053 1486 c0 -7 9 -12 19 -12 23 0 23 12 0 18 -10 3 -19 0 -19 -6z"/>
<path d="M404 1449 c-4 -7 -3 -9 4 -5 5 3 13 0 15 -6 4 -9 6 -10 6 -1 1 17
-16 25 -25 12z"/>
<path d="M898 1442 c-3 -11 0 -19 7 -19 7 0 10 8 7 19 -2 10 -6 18 -7 18 -1 0
-5 -8 -7 -18z"/>
<path d="M1018 1443 c-2 -33 -4 -38 -11 -50 -6 -9 -2 -13 10 -13 11 0 24 -5
30 -11 7 -7 13 -7 17 -1 3 5 -5 13 -18 16 -20 5 -23 11 -19 41 2 19 1 35 -2
35 -3 0 -6 -8 -7 -17z"/>
<path d="M514 1439 c-4 -7 -1 -10 7 -7 8 3 25 -4 39 -16 l25 -21 -24 28 c-27
30 -36 33 -47 16z"/>
<path d="M1105 1420 c-16 -16 -25 -30 -22 -30 4 0 3 -9 -2 -19 -8 -14 -7 -20
3 -24 10 -4 12 0 8 15 -3 14 -1 19 6 15 6 -4 9 0 7 10 -1 10 7 28 18 41 31 33
15 27 -18 -8z"/>
<path d="M780 1430 c-9 -6 -10 -10 -3 -10 6 0 15 5 18 10 8 12 4 12 -15 0z"/>
<path d="M947 1420 c-3 -11 -1 -20 4 -20 5 0 9 9 9 20 0 11 -2 20 -4 20 -2 0
-6 -9 -9 -20z"/>
<path d="M1063 1425 c0 -8 4 -15 9 -15 4 0 8 4 8 9 0 6 -4 12 -8 15 -5 3 -9
-1 -9 -9z"/>
<path d="M640 1420 c0 -6 7 -10 15 -10 8 0 15 2 15 4 0 2 -7 6 -15 10 -8 3
-15 1 -15 -4z"/>
<path d="M818 1423 c7 -3 16 -2 19 1 4 3 -2 6 -13 5 -11 0 -14 -3 -6 -6z"/>
<path d="M527 1413 c-3 -3 1 -12 9 -20 8 -9 18 -13 21 -10 3 3 -1 13 -10 21
-8 8 -17 12 -20 9z"/>
<path d="M1185 1410 c-3 -6 1 -7 9 -4 18 7 21 14 7 14 -6 0 -13 -4 -16 -10z"/>
<path d="M436 1398 c3 -5 10 -6 15 -3 13 9 11 12 -6 12 -8 0 -12 -4 -9 -9z"/>
<path d="M492 1390 c0 -14 2 -19 5 -12 2 6 2 18 0 25 -3 6 -5 1 -5 -13z"/>
<path d="M400 1391 c0 -6 4 -13 10 -16 6 -3 7 1 4 9 -7 18 -14 21 -14 7z"/>
<path d="M343 1373 c9 -2 23 -2 30 0 6 3 -1 5 -18 5 -16 0 -22 -2 -12 -5z"/>
<path d="M1226 1361 c-3 -5 1 -14 8 -20 10 -9 16 -9 21 -1 4 6 1 9 -7 8 -7 -2
-12 3 -10 10 2 14 -4 16 -12 3z"/>
<path d="M675 1353 c-69 -14 -179 -61 -231 -99 -148 -105 -235 -262 -250 -449
-14 -173 76 -379 212 -482 27 -21 55 -43 61 -50 38 -35 215 -83 308 -83 93 0
271 48 308 83 6 7 35 29 62 49 28 20 64 55 80 77 17 23 38 51 47 63 42 50 88
214 88 313 0 99 -46 263 -88 313 -9 12 -30 40 -47 63 -16 22 -52 57 -80 77
-27 20 -56 42 -62 49 -16 14 -108 49 -182 69 -51 13 -180 17 -226 7z m205 -12
c20 -6 14 -8 -30 -13 -65 -7 -160 1 -160 13 0 11 154 10 190 0z m-354 -82 c3
-6 15 -9 25 -6 29 8 41 -15 22 -43 -9 -13 -12 -20 -6 -17 6 4 13 4 16 0 2 -5
3 -3 1 3 -2 8 12 10 42 6 46 -5 59 8 27 27 -17 10 -17 10 0 11 9 0 17 -5 17
-11 0 -7 12 -10 28 -8 19 3 35 -3 52 -20 17 -17 20 -22 8 -18 -12 4 -21 -1
-29 -14 -10 -19 -9 -20 11 -9 16 9 25 8 38 -2 15 -11 16 -11 4 4 -15 19 -9 23
37 27 22 2 31 -1 26 -8 -3 -6 -11 -9 -16 -6 -5 4 -9 -1 -9 -9 0 -9 5 -16 10
-16 6 0 10 4 10 9 0 17 42 24 51 10 8 -11 12 -10 21 5 11 19 11 19 25 0 11
-15 17 -17 33 -6 25 15 50 16 50 1 0 -8 4 -8 14 0 10 8 16 9 21 1 4 -7 12 -7
27 1 26 14 52 -6 28 -22 -13 -9 -12 -10 2 -5 10 3 20 1 23 -4 3 -5 -4 -12 -15
-15 -17 -5 -19 -9 -9 -21 8 -10 15 -11 24 -4 9 8 11 4 8 -14 -4 -17 0 -25 16
-29 12 -3 21 -1 21 4 0 5 9 9 20 9 11 0 20 7 20 15 0 8 5 15 11 15 5 0 8 -4 5
-9 -4 -5 -1 -11 5 -13 5 -2 7 -11 3 -21 -5 -14 -13 -17 -30 -13 -33 9 -30 -2
3 -15 22 -8 24 -12 13 -19 -9 -6 -10 -10 -3 -10 11 0 28 18 28 32 0 23 16 14
33 -19 26 -50 43 -113 31 -113 -5 0 -9 -7 -9 -15 0 -8 6 -13 13 -11 6 1 8 1 4
-2 -4 -2 -5 -20 -3 -40 l5 -37 -10 38 -11 37 -53 -3 c-43 -2 -51 0 -43 10 7 9
7 13 -1 13 -7 0 -9 5 -6 11 5 6 11 4 19 -6 8 -12 22 -15 46 -12 l35 4 -39 1
c-31 2 -36 5 -27 15 15 19 -21 16 -45 -4 -16 -12 -17 -12 -11 4 3 9 2 17 -3
17 -6 0 -10 -7 -10 -15 0 -17 -45 -21 -55 -5 -3 6 -12 10 -18 9 -9 0 -9 -2 1
-6 18 -7 15 -21 -7 -33 -14 -7 -22 -7 -27 2 -4 6 -3 8 2 5 6 -3 16 -1 24 4 12
7 10 8 -7 6 -12 -2 -25 -6 -29 -9 -9 -10 -35 3 -28 13 3 5 9 7 14 4 5 -3 11
-1 14 4 7 11 -13 9 -34 -4 -8 -5 -38 -10 -68 -10 -51 -2 -54 -1 -49 21 5 28
-14 47 -38 38 -12 -5 -16 -15 -13 -34 l4 -28 -163 -1 c-125 -1 -163 2 -163 11
0 10 -2 10 -9 0 -10 -16 -133 -13 -138 3 -2 6 6 11 17 11 11 0 20 -3 20 -6 0
-3 19 -6 43 -7 31 0 34 1 10 4 -23 3 -30 8 -26 19 3 8 0 14 -7 14 -6 0 -8 -5
-4 -11 4 -8 -1 -9 -17 -3 -13 4 -32 7 -41 6 -10 0 -18 4 -18 10 0 6 -13 8 -32
4 -18 -3 -47 -2 -65 2 l-31 7 23 55 c12 30 27 54 33 53 6 -2 9 3 6 11 -11 28
125 170 187 195 32 13 37 13 45 0z m681 -165 c0 -19 -10 -18 -24 5 -10 16 -9
18 6 14 10 -2 18 -11 18 -19z m-429 -225 c166 -1 244 -5 251 -13 5 -6 11 -35
12 -64 4 -52 4 -52 -39 -78 -24 -14 -41 -20 -40 -13 3 14 -59 31 -64 18 -2 -4
-33 -9 -70 -10 -38 -1 -68 -5 -68 -9 0 -12 -46 -28 -59 -21 -18 11 12 33 57
42 35 6 35 7 7 8 -16 0 -47 -4 -69 -10 -33 -9 -41 -8 -60 9 -11 11 -34 27 -51
35 -16 8 -39 24 -50 34 -11 11 -26 18 -32 16 -6 -2 -14 1 -18 6 -3 7 0 8 9 5
17 -6 38 33 28 50 -3 5 -1 6 5 3 5 -3 119 -7 251 -8z m412 4 c0 -4 -18 -8 -39
-9 -22 0 -38 2 -36 6 6 9 75 12 75 3z m-920 -33 c-13 -9 -13 -10 1 -10 8 0 24
-7 35 -16 10 -8 14 -13 8 -10 -6 3 -23 10 -38 16 -26 10 -28 30 -3 30 7 0 6
-4 -3 -10z m55 0 c3 -6 -1 -7 -9 -4 -18 7 -21 14 -7 14 6 0 13 -4 16 -10z m98
3 c-7 -2 -21 -2 -30 0 -10 3 -4 5 12 5 17 0 24 -2 18 -5z m23 -29 c18 -14 18
-14 -6 -3 -31 14 -36 19 -24 19 6 0 19 -7 30 -16z m644 -4 c0 -5 -2 -10 -4
-10 -3 0 -8 5 -11 10 -3 6 -1 10 4 10 6 0 11 -4 11 -10z m68 3 c-10 -2 -28 -2
-40 0 -13 2 -5 4 17 4 22 1 32 -1 23 -4z m-2 -38 c1 -7 -4 -16 -12 -19 -11 -4
-12 -1 -5 13 6 10 8 21 6 25 -3 3 -2 4 2 1 4 -3 8 -12 9 -20z m118 0 c-4 -11
-10 -10 -25 3 -24 21 -24 20 5 15 15 -3 23 -10 20 -18z m-174 -9 c0 -2 -7 -7
-16 -10 -8 -3 -12 -2 -9 4 6 10 25 14 25 6z m110 0 c0 -2 -8 -10 -17 -17 -16
-13 -17 -12 -4 4 13 16 21 21 21 13z m-664 -31 c-11 -8 -25 -15 -30 -15 -6 1
0 7 14 15 32 19 40 18 16 0z m624 0 c0 -2 -10 -9 -22 -15 -22 -11 -22 -10 -4
4 21 17 26 19 26 11z m-125 -25 c-3 -5 -12 -10 -18 -10 -7 0 -6 4 3 10 19 12
23 12 15 0z m-95 -9 c0 -5 3 -18 7 -28 7 -17 5 -17 -17 -2 -14 8 -38 16 -54
17 -16 1 -32 5 -35 8 -3 4 13 5 37 2 23 -2 42 0 42 4 0 5 5 8 10 8 6 0 10 -4
10 -9z m-80 -32 c0 -6 7 -8 16 -5 9 4 25 4 36 0 15 -4 17 -9 8 -19 -12 -15 -5
-71 12 -92 5 -6 8 -17 7 -25 -4 -25 13 -68 28 -68 8 0 11 -5 7 -12 -5 -8 -13
-5 -25 10 -20 25 -31 29 -23 7 4 -8 2 -15 -4 -15 -6 0 -12 6 -14 12 -3 7 -7 2
-10 -10 -6 -21 -4 -23 20 -17 25 5 27 3 29 -27 2 -21 -1 -28 -6 -20 -5 9 -8
-1 -7 -25 1 -21 -3 -44 -8 -51 -6 -9 -6 -19 1 -31 8 -13 7 -22 -3 -36 -8 -10
-14 -14 -14 -7 0 6 -6 9 -14 6 -13 -5 -14 -1 -7 35 1 2 9 -2 19 -10 15 -12 15
-11 -1 7 -15 16 -19 17 -27 4 -5 -8 -6 -18 -4 -22 3 -4 -1 -8 -8 -8 -8 -1 -5
-7 7 -16 20 -16 20 -16 -3 -9 -13 4 -28 2 -35 -3 -7 -5 -21 -6 -32 -1 -11 4
-14 8 -7 8 9 1 11 8 7 21 -5 15 0 22 18 29 14 6 28 15 32 20 4 8 -2 8 -20 1
-34 -13 -35 -13 -29 4 3 8 1 17 -5 20 -6 4 -8 13 -5 20 3 8 -4 23 -16 33 -11
11 -24 33 -29 50 -8 28 -7 30 18 26 23 -4 22 -2 -9 14 l-35 18 28 3 c15 2 27
8 27 13 0 5 0 12 0 17 0 4 -6 7 -12 7 -15 0 -12 48 3 53 5 2 9 8 9 13 0 4 -7
6 -15 3 -11 -5 -15 1 -15 20 0 14 0 28 0 31 0 3 2 5 5 5 3 -1 12 5 19 12 16
16 86 22 86 7z m-197 -9 c15 0 18 -3 10 -11 -8 -8 -19 -6 -39 6 -16 9 -21 14
-11 11 10 -3 28 -6 40 -6z m-6 -92 c-2 -13 -4 -3 -4 22 0 25 2 35 4 23 2 -13
2 -33 0 -45z m-296 -9 c6 -12 7 -19 2 -17 -4 3 -17 8 -28 12 -16 6 -17 9 -5
16 19 12 18 13 31 -11z m-57 -17 c2 -4 -4 -8 -15 -8 -10 0 -19 4 -19 8 0 4 6
8 14 8 8 0 17 -4 20 -8z m341 -130 c-4 -35 -9 -62 -11 -59 -3 2 -1 42 3 88 4
46 9 73 11 60 2 -14 1 -54 -3 -89z m72 72 c-3 -3 -12 -4 -19 -1 -8 3 -5 6 6 6
11 1 17 -2 13 -5z m273 -62 c0 -13 -12 -22 -22 -16 -10 6 -1 24 13 24 5 0 9
-4 9 -8z m-10 -52 c9 -6 11 -10 3 -10 -8 0 -10 -7 -6 -17 6 -16 5 -16 -10 -4
-17 14 -23 41 -9 41 4 0 14 -5 22 -10z m-352 -60 c-5 -17 -14 -33 -19 -36 -8
-5 4 37 17 57 11 19 12 8 2 -21z m152 10 c18 -12 2 -12 -25 0 -13 6 -15 9 -5
9 8 0 22 -4 30 -9z m206 -22 c-9 -5 -21 -6 -28 -2 -8 5 -5 10 8 14 25 10 41 0
20 -12z m-226 -43 c-7 -9 -15 -13 -19 -10 -3 3 1 10 9 15 21 14 24 12 10 -5z
m13 -17 c-4 -7 -8 -16 -8 -20 0 -14 -15 -21 -15 -7 0 8 5 20 12 27 16 16 21
15 11 0z"/>
<path d="M445 1229 c-5 -6 -26 -23 -45 -39 -19 -16 -28 -28 -20 -27 8 2 15 6
15 10 0 4 15 16 33 27 17 11 32 24 32 30 0 12 -2 12 -15 -1z"/>
<path d="M467 1194 c5 -13 2 -15 -18 -10 -13 3 -18 3 -11 0 6 -3 9 -10 6 -16
-4 -6 2 -5 15 1 23 13 27 26 11 36 -6 4 -7 -1 -3 -11z"/>
<path d="M700 1190 c-8 -5 -10 -10 -5 -10 6 0 17 5 25 10 8 5 11 10 5 10 -5 0
-17 -5 -25 -10z"/>
<path d="M604 1178 c-11 -17 6 -22 22 -7 13 14 13 16 -1 16 -9 0 -18 -4 -21
-9z"/>
<path d="M694 1161 c3 -5 -1 -14 -9 -21 -22 -19 3 -36 50 -35 64 2 85 23 42
42 -24 11 -54 2 -69 -21 -4 -6 -10 -7 -14 -3 -4 4 -2 13 4 19 15 15 15 28 1
28 -5 0 -8 -4 -5 -9z"/>
<path d="M660 1150 c-9 -6 -10 -10 -3 -10 6 0 15 5 18 10 8 12 4 12 -15 0z"/>
<path d="M345 1130 c-15 -17 -16 -23 -5 -33 10 -9 11 -9 6 1 -9 15 12 44 25
36 5 -3 9 0 9 5 0 17 -15 13 -35 -9z"/>
<path d="M975 1120 c-4 -6 9 -10 31 -10 42 0 42 4 2 14 -15 3 -30 2 -33 -4z"/>
<path d="M785 1090 c3 -5 8 -10 11 -10 2 0 4 5 4 10 0 6 -5 10 -11 10 -5 0 -7
-4 -4 -10z"/>
<path d="M1120 1050 c0 -5 5 -10 11 -10 5 0 7 5 4 10 -3 6 -8 10 -11 10 -2 0
-4 -4 -4 -10z"/>
<path d="M309 1033 c0 -5 -2 -16 -4 -25 -4 -20 10 -33 19 -19 4 5 2 12 -3 16
-6 3 -8 12 -4 20 3 8 2 15 -1 15 -3 0 -6 -3 -7 -7z"/>
<path d="M1174 1025 c3 -21 16 -31 16 -12 0 9 -4 18 -9 21 -5 4 -8 -1 -7 -9z"/>
<path d="M890 988 c0 -4 6 -8 14 -8 8 0 17 4 20 8 2 4 -4 8 -15 8 -10 0 -19
-4 -19 -8z"/>
<path d="M256 975 c-9 -26 -7 -32 5 -12 6 10 9 21 6 23 -2 3 -7 -2 -11 -11z"/>
<path d="M358 973 c6 -2 12 -9 12 -14 0 -6 -6 -7 -12 -3 -8 5 -7 1 2 -10 8
-11 16 -14 18 -7 2 6 8 9 13 5 14 -8 11 3 -7 20 -8 9 -21 16 -27 15 -9 0 -8
-2 1 -6z"/>
<path d="M288 963 c6 -3 10 -8 7 -13 -3 -4 4 -6 15 -3 32 9 31 18 -3 19 -18 1
-26 -1 -19 -3z"/>
<path d="M925 960 c3 -5 8 -10 11 -10 2 0 4 5 4 10 0 6 -5 10 -11 10 -5 0 -7
-4 -4 -10z"/>
<path d="M820 950 c-9 -6 -10 -10 -3 -10 6 0 15 5 18 10 8 12 4 12 -15 0z"/>
<path d="M908 948 c8 -9 11 -22 7 -28 -3 -5 -1 -10 4 -10 17 0 13 26 -6 41
-16 13 -17 12 -5 -3z"/>
<path d="M666 907 c3 -10 9 -15 12 -12 3 3 0 11 -7 18 -10 9 -11 8 -5 -6z"/>
<path d="M990 908 c0 -4 4 -8 9 -8 6 0 12 4 15 8 3 5 -1 9 -9 9 -8 0 -15 -4
-15 -9z"/>
<path d="M1290 910 c-9 -6 -10 -10 -3 -10 6 0 15 5 18 10 8 12 4 12 -15 0z"/>
<path d="M548 893 c7 -3 16 -2 19 1 4 3 -2 6 -13 5 -11 0 -14 -3 -6 -6z"/>
<path d="M896 627 c3 -10 9 -15 12 -12 3 3 0 11 -7 18 -10 9 -11 8 -5 -6z"/>
<path d="M900 541 c0 -7 -4 -10 -8 -7 -4 2 -8 -5 -8 -16 0 -17 2 -18 10 -5 9
14 11 14 24 -1 11 -15 11 -14 1 8 -15 32 -19 36 -19 21z"/>
<path d="M885 460 c3 -5 8 -10 11 -10 2 0 4 5 4 10 0 6 -5 10 -11 10 -5 0 -7
-4 -4 -10z"/>
<path d="M773 426 c-4 -5 -1 -6 6 -2 8 5 11 2 9 -9 -2 -10 3 -20 11 -23 9 -3
11 1 7 16 -5 15 -2 22 11 25 10 3 5 4 -10 4 -16 -1 -31 -6 -34 -11z"/>
<path d="M870 430 c0 -5 5 -10 11 -10 5 0 7 5 4 10 -3 6 -8 10 -11 10 -2 0 -4
-4 -4 -10z"/>
<path d="M821 367 c-1 -25 18 -59 30 -52 5 4 9 14 8 23 0 14 -2 13 -8 -3 -8
-18 -10 -16 -19 15 -6 19 -11 27 -11 17z"/>
<path d="M874 339 c-3 -6 0 -17 8 -25 13 -13 15 -13 15 0 0 8 -5 12 -10 9 -6
-4 -8 0 -4 10 7 19 2 23 -9 6z"/>
<path d="M916 325 c-3 -8 -1 -15 4 -15 13 0 22 18 11 24 -5 3 -11 -1 -15 -9z"/>
<path d="M840 256 c7 -7 14 -6 21 1 9 9 7 12 -9 10 -14 -1 -18 -5 -12 -11z"/>
<path d="M1280 1356 c0 -2 8 -10 18 -17 15 -13 16 -12 3 4 -13 16 -21 21 -21
13z"/>
<path d="M256 1341 c-4 -5 3 -7 14 -4 23 6 26 13 6 13 -8 0 -17 -4 -20 -9z"/>
<path d="M1141 1319 c5 -10 12 -19 15 -19 3 0 3 4 0 9 -4 5 -1 11 6 13 7 3 3
7 -10 10 -19 5 -20 4 -11 -13z"/>
<path d="M1249 1313 l-24 -28 28 24 c25 23 32 31 24 31 -2 0 -14 -12 -28 -27z"/>
<path d="M374 1315 c22 -17 40 -20 32 -6 -3 5 -16 11 -28 14 -22 6 -22 5 -4
-8z"/>
<path d="M260 1316 c0 -2 8 -10 18 -17 15 -13 16 -12 3 4 -13 16 -21 21 -21
13z"/>
<path d="M1265 1280 c-21 -22 -36 -40 -33 -40 3 0 24 18 46 40 22 22 37 40 33
40 -4 0 -25 -18 -46 -40z"/>
<path d="M330 1300 c0 -5 7 -7 15 -4 10 4 14 1 12 -7 -2 -8 -2 -11 0 -6 3 4
10 4 16 0 7 -4 6 1 -2 10 -15 18 -41 23 -41 7z"/>
<path d="M221 1298 c2 -2 20 -16 39 -33 l35 -30 -29 33 c-17 17 -34 32 -40 32
-5 0 -7 -1 -5 -2z"/>
<path d="M1337 1282 c16 -5 20 -11 14 -20 -4 -8 -11 -13 -15 -13 -3 1 -5 -1
-3 -2 1 -2 -4 -12 -12 -23 -7 -10 0 -5 17 13 17 17 34 28 38 25 5 -4 2 1 -5
11 -7 9 -23 17 -35 16 -21 -1 -21 -1 1 -7z"/>
<path d="M309 1268 c11 -15 11 -21 0 -35 -11 -15 -9 -14 9 1 12 11 21 20 20
20 -2 1 -12 8 -23 16 -19 14 -19 14 -6 -2z"/>
<path d="M170 1236 c0 -2 8 -10 18 -17 15 -13 16 -12 3 4 -13 16 -21 21 -21
13z"/>
<path d="M1356 1212 l-19 -27 24 22 c12 12 21 24 18 27 -2 2 -13 -8 -23 -22z"/>
<path d="M1400 1209 c0 -5 5 -7 10 -4 6 3 10 8 10 11 0 2 -4 4 -10 4 -5 0 -10
-5 -10 -11z"/>
<path d="M153 1185 c0 -8 4 -12 9 -9 5 3 6 10 3 15 -9 13 -12 11 -12 -6z"/>
<path d="M1424 1182 c0 -10 6 -19 13 -19 8 0 9 6 2 19 -5 10 -11 18 -12 18 -2
0 -3 -8 -3 -18z"/>
<path d="M220 1178 c16 -19 12 -32 -5 -18 -9 7 -18 10 -22 6 -3 -3 -1 -6 6 -6
7 0 9 -5 5 -12 -4 -6 -3 -8 4 -4 5 3 12 0 15 -6 3 -9 7 -7 12 5 5 12 2 23 -9
33 -9 8 -11 9 -6 2z"/>
<path d="M250 1172 c0 -12 3 -12 15 -2 8 7 15 13 15 15 0 1 -7 2 -15 2 -8 0
-15 -7 -15 -15z"/>
<path d="M1380 1179 c0 -5 -5 -7 -10 -4 -6 3 -13 0 -16 -8 -3 -9 -14 -13 -27
-11 -21 4 -21 4 -2 -5 14 -6 23 -5 30 3 6 7 16 11 23 9 6 -3 12 2 12 11 0 9
-2 16 -5 16 -3 0 -5 -5 -5 -11z"/>
<path d="M111 1154 c0 -11 3 -14 6 -6 3 7 2 16 -1 19 -3 4 -6 -2 -5 -13z"/>
<path d="M130 1166 c0 -2 8 -10 18 -17 15 -13 16 -12 3 4 -13 16 -21 21 -21
13z"/>
<path d="M1414 1140 c2 -16 20 -14 24 2 3 10 2 10 -6 -1 -7 -9 -11 -10 -15 -2
-4 7 -5 8 -3 1z"/>
<path d="M132 1110 c7 -11 17 -20 22 -20 5 0 1 9 -9 20 -10 11 -20 20 -22 20
-2 0 2 -9 9 -20z"/>
<path d="M190 1100 c-23 -7 -23 -8 -3 -9 12 -1 25 4 28 9 3 6 5 10 3 9 -2 -1
-14 -5 -28 -9z"/>
<path d="M125 1067 c-14 -18 -18 -40 -5 -32 5 3 10 -1 10 -9 0 -8 10 -20 21
-27 17 -9 20 -8 16 3 -2 7 -10 12 -16 11 -11 -3 -15 15 -12 50 3 20 0 21 -14
4z"/>
<path d="M155 1059 c-4 -6 -5 -12 -2 -15 2 -3 7 2 10 11 7 17 1 20 -8 4z"/>
<path d="M50 1037 c0 -5 7 -7 15 -3 8 3 15 1 15 -4 0 -6 4 -10 10 -10 5 0 7 6
4 14 -6 16 -44 18 -44 3z"/>
<path d="M1420 1016 c0 -2 7 -7 16 -10 8 -3 12 -2 9 4 -6 10 -25 14 -25 6z"/>
<path d="M1390 1001 c0 -5 8 -15 18 -22 15 -12 16 -12 5 2 -7 9 -10 19 -6 22
3 4 1 7 -5 7 -7 0 -12 -4 -12 -9z"/>
<path d="M90 949 c0 -6 -7 -8 -17 -5 -9 4 -20 1 -25 -6 -6 -10 -10 -10 -19 2
-9 13 -10 13 -6 0 5 -21 44 -21 70 1 12 10 16 18 10 19 -7 0 -13 -5 -13 -11z"/>
<path d="M1410 939 c0 -5 5 -7 10 -4 6 3 10 8 10 11 0 2 -4 4 -10 4 -5 0 -10
-5 -10 -11z"/>
<path d="M1530 942 c0 -6 -8 -13 -17 -15 -16 -4 -16 -5 -1 -6 18 -1 34 16 24
26 -3 4 -6 1 -6 -5z"/>
<path d="M1424 897 c-3 -9 -1 -23 5 -31 7 -8 10 -19 9 -26 -2 -7 4 -15 12 -17
12 -4 12 -3 2 5 -11 7 -11 10 3 16 9 3 13 10 10 16 -3 5 -1 10 6 10 7 0 9 3 6
6 -4 4 -14 1 -24 -7 -15 -12 -16 -12 -11 2 3 9 2 22 -2 30 -7 11 -10 10 -16
-4z"/>
<path d="M10 890 c0 -5 5 -10 11 -10 5 0 7 5 4 10 -3 6 -8 10 -11 10 -2 0 -4
-4 -4 -10z"/>
<path d="M113 865 c0 -8 4 -12 9 -9 5 3 6 10 3 15 -9 13 -12 11 -12 -6z"/>
<path d="M1506 843 c-6 -14 -5 -15 5 -6 7 7 10 15 7 18 -3 3 -9 -2 -12 -12z"/>
<path d="M1536 845 c-3 -8 -1 -15 4 -15 6 0 10 7 10 15 0 8 -2 15 -4 15 -2 0
-6 -7 -10 -15z"/>
<path d="M19 823 c-13 -16 -12 -17 4 -4 9 7 17 15 17 17 0 8 -8 3 -21 -13z"/>
<path d="M120 832 c0 -5 -10 -14 -22 -21 -13 -6 -15 -9 -6 -7 10 3 22 -2 27
-12 9 -14 10 -11 11 16 0 17 -2 32 -5 32 -3 0 -5 -4 -5 -8z"/>
<path d="M40 810 c0 -5 5 -10 11 -10 5 0 7 5 4 10 -3 6 -8 10 -11 10 -2 0 -4
-4 -4 -10z"/>
<path d="M0 768 c0 -5 12 -5 28 -2 39 10 41 15 4 12 -18 -1 -32 -6 -32 -10z"/>
<path d="M1430 755 c0 -8 4 -15 10 -15 5 0 7 7 4 15 -4 8 -8 15 -10 15 -2 0
-4 -7 -4 -15z"/>
<path d="M90 739 c0 -5 5 -7 10 -4 6 3 10 8 10 11 0 2 -4 4 -10 4 -5 0 -10 -5
-10 -11z"/>
<path d="M10 725 c8 -11 15 -21 16 -23 1 -2 5 5 8 15 4 9 4 14 0 10 -4 -4 -14
-1 -23 6 -14 11 -15 10 -1 -8z"/>
<path d="M1430 712 c0 -5 7 -9 15 -9 8 0 12 4 9 9 -3 4 -9 8 -15 8 -5 0 -9 -4
-9 -8z"/>
<path d="M109 683 c-13 -16 -12 -17 4 -4 9 7 17 15 17 17 0 8 -8 3 -21 -13z"/>
<path d="M1508 693 c7 -3 16 -2 19 1 4 3 -2 6 -13 5 -11 0 -14 -3 -6 -6z"/>
<path d="M1423 655 c-3 -9 -3 -19 1 -22 3 -3 1 -11 -4 -18 -7 -8 -5 -12 4 -12
9 0 12 9 9 28 -3 24 0 28 24 32 l28 4 -28 2 c-17 0 -30 -5 -34 -14z"/>
<path d="M1495 660 c3 -5 14 -10 23 -10 15 0 15 2 2 10 -20 13 -33 13 -25 0z"/>
<path d="M90 640 c0 -5 11 -9 24 -8 14 1 22 6 20 10 -7 12 -44 10 -44 -2z"/>
<path d="M45 630 c3 -5 8 -10 11 -10 2 0 4 5 4 10 0 6 -5 10 -11 10 -5 0 -7
-4 -4 -10z"/>
<path d="M1480 630 c8 -5 20 -10 25 -10 6 0 3 5 -5 10 -8 5 -19 10 -25 10 -5
0 -3 -5 5 -10z"/>
<path d="M27 613 c-11 -11 -8 -20 7 -20 8 0 12 6 9 14 -6 15 -7 15 -16 6z"/>
<path d="M1406 568 c3 -5 10 -6 15 -3 13 9 11 12 -6 12 -8 0 -12 -4 -9 -9z"/>
<path d="M30 558 c0 -11 12 -10 30 2 12 7 10 9 -8 7 -12 0 -22 -5 -22 -9z"/>
<path d="M120 550 c-6 -11 -9 -20 -8 -20 2 0 11 9 21 20 9 11 13 20 7 20 -5 0
-14 -9 -20 -20z"/>
<path d="M1418 543 c7 -3 16 -2 19 1 4 3 -2 6 -13 5 -11 0 -14 -3 -6 -6z"/>
<path d="M1387 533 c-10 -9 -9 -33 1 -33 4 0 8 9 8 20 0 23 0 22 -9 13z"/>
<path d="M134 514 c-18 -14 -18 -15 4 -4 12 6 22 13 22 15 0 8 -5 6 -26 -11z"/>
<path d="M69 483 c-12 -16 -12 -17 1 -7 8 6 22 14 30 17 13 5 12 6 -1 6 -9 1
-23 -7 -30 -16z"/>
<path d="M170 490 c-13 -8 -12 -10 3 -10 9 0 17 5 17 10 0 12 -1 12 -20 0z"/>
<path d="M1397 479 c7 -7 15 -10 18 -7 3 3 -2 9 -12 12 -14 6 -15 5 -6 -5z"/>
<path d="M70 450 c0 -5 5 -10 11 -10 5 0 7 5 4 10 -3 6 -8 10 -11 10 -2 0 -4
-4 -4 -10z"/>
<path d="M1475 450 c-3 -5 -1 -10 4 -10 6 0 11 5 11 10 0 6 -2 10 -4 10 -3 0
-8 -4 -11 -10z"/>
<path d="M1416 434 c-3 -8 -2 -12 4 -9 6 3 10 1 10 -4 0 -6 5 -11 11 -11 8 0
9 4 0 13 -6 8 -8 17 -4 20 3 4 2 7 -4 7 -6 0 -14 -7 -17 -16z"/>
<path d="M208 413 c7 -3 16 -2 19 1 4 3 -2 6 -13 5 -11 0 -14 -3 -6 -6z"/>
<path d="M96 398 c3 -5 10 -6 15 -3 13 9 11 12 -6 12 -8 0 -12 -4 -9 -9z"/>
<path d="M138 373 c7 -3 16 -2 19 1 4 3 -2 6 -13 5 -11 0 -14 -3 -6 -6z"/>
<path d="M397 232 c1 -3 -4 -14 -14 -24 -11 -13 -12 -18 -3 -18 10 0 10 -3 -1
-17 -7 -10 0 -6 16 9 26 25 28 29 14 42 -9 7 -14 11 -12 8z"/>
<path d="M1120 201 c0 -6 4 -13 10 -16 6 -3 7 1 4 9 -7 18 -14 21 -14 7z"/>
<path d="M1155 192 c10 -13 20 -30 21 -39 4 -28 20 -35 35 -16 13 17 13 17 -5
3 -18 -14 -19 -13 -14 1 4 11 -4 27 -25 45 -20 19 -25 21 -12 6z"/>
<path d="M1068 173 c6 -2 18 -2 25 0 6 3 1 5 -13 5 -14 0 -19 -2 -12 -5z"/>
<path d="M351 154 c0 -11 3 -14 6 -6 3 7 2 16 -1 19 -3 4 -6 -2 -5 -13z"/>
<path d="M1145 159 c-4 -6 -5 -12 -2 -15 2 -3 7 2 10 11 7 17 1 20 -8 4z"/>
<path d="M991 147 c2 -1 13 -9 24 -17 19 -14 19 -14 6 3 -7 9 -18 17 -24 17
-6 0 -8 -1 -6 -3z"/>
<path d="M385 122 c-8 -8 34 -34 44 -28 5 4 11 1 13 -6 3 -8 7 -6 11 4 5 13 1
16 -20 12 -19 -4 -24 -1 -20 9 5 13 -17 20 -28 9z"/>
<path d="M660 110 c0 -5 7 -7 15 -4 8 4 15 8 15 10 0 2 -7 4 -15 4 -8 0 -15
-4 -15 -10z"/>
<path d="M849 103 c-12 -16 -12 -17 1 -7 8 6 22 14 30 17 13 5 12 6 -1 6 -9 1
-23 -7 -30 -16z"/>
<path d="M893 97 c-9 -18 -8 -24 2 -24 7 0 13 11 13 24 0 13 -1 23 -3 23 -1 0
-7 -10 -12 -23z"/>
<path d="M972 95 c0 -16 2 -22 5 -12 2 9 2 23 0 30 -3 6 -5 -1 -5 -18z"/>
<path d="M474 85 c-18 -15 -18 -15 0 -8 15 5 17 3 11 -8 -5 -8 -4 -11 0 -6 8
7 17 37 11 37 -1 0 -11 -7 -22 -15z"/>
<path d="M711 95 c1 -19 18 -51 18 -35 0 8 -4 22 -9 30 -5 8 -9 11 -9 5z"/>
<path d="M530 75 c0 -8 4 -15 10 -15 5 0 7 7 4 15 -4 8 -8 15 -10 15 -2 0 -4
-7 -4 -15z"/>
<path d="M1024 66 c-1 -18 2 -22 16 -19 17 5 17 6 2 24 -9 10 -17 19 -17 19 0
0 -1 -11 -1 -24z"/>
<path d="M781 34 c0 -11 3 -14 6 -6 3 7 2 16 -1 19 -3 4 -6 -2 -5 -13z"/>
<path d="M837 21 c-4 -17 -3 -21 5 -13 5 5 8 16 6 23 -3 8 -7 3 -11 -10z"/>
<path d="M650 20 c0 -5 5 -10 11 -10 5 0 7 5 4 10 -3 6 -8 10 -11 10 -2 0 -4
-4 -4 -10z"/>
<path d="M790 10 c-13 -8 -12 -10 3 -10 9 0 17 5 17 10 0 12 -1 12 -20 0z"/>
</g>
</svg>
